<svg viewBox="0 0 800 600" height="600" width="800" xmlns="http://www.w3.org/2000/svg" version="1.1"><g transform-origin="center" transform="scale(1, 1) rotate(0)"><rect x="0" y="0" width="800" height="600" fill="#050816"></rect><linearGradient id="linear-gradient-rg"><stop offset="0%" stop-color="#aaa6c3" stop-opacity="100%"></stop><stop offset="100%" stop-color="#160C28" stop-opacity="100%"></stop></linearGradient><path d="M0 368.51198577499025 0,368.51198577499025 C 14.545454545454549,363.3099980583229 43.63636363636364,344.62530262876305 72.72727272727273,342.50204719165345 C 101.81818181818183,340.37879175454384 116.36363636363637,363.41030194731434 145.45454545454547,357.8957085894421 C 174.54545454545456,352.3811152315699 189.0909090909091,319.63621477779003 218.1818181818182,314.92908040229236 C 247.27272727272728,310.2219460267947 261.8181818181818,326.1553480856494 290.90909090909093,334.3600367119536 C 320.00000000000006,342.5647253382579 334.5454545454546,353.0381181838364 363.6363636363637,355.9525235338137 C 392.72727272727275,358.866928883791 407.2727272727273,352.09352189905945 436.3636363636364,348.9320634618402 C 465.45454545454544,345.7706050246209 480,341.4927842015587 509.0909090909091,340.1452313477174 C 538.1818181818182,338.7976784938761 552.7272727272727,345.3230061781407 581.8181818181819,342.19429919263354 C 610.909090909091,339.0655922071264 625.4545454545455,317.4706604923122 654.5454545454546,324.5016964201816 C 683.6363636363637,331.53273234805096 698.1818181818182,369.85237879125407 727.2727272727274,377.34947883198043 C 756.3636363636365,384.8465788727068 785.4545454545456,365.0596530654468 800.0000000000001,361.9871966238134" fill="none" stroke-linecap="round" stroke-width="4" style="transition: all 0.4s cubic-bezier(0.16, 1, 0.3, 1) 0s;" stroke="url(#linear-gradient-rg)"></path><path d="M0 384.64408200369223 0,384.64408200369223 C 14.545454545454547,395.8904640762897 43.63636363636363,425.41026486892724 72.72727272727273,440.8759923666794 C 101.81818181818183,456.3417198644315 116.36363636363637,462.7332572025263 145.45454545454547,461.9727194924529 C 174.54545454545456,461.2121817823795 189.0909090909091,434.10827871288956 218.1818181818182,437.0733038163124 C 247.27272727272728,440.0383289197352 261.8181818181818,472.11355434521107 290.90909090909093,476.79784500956697 C 320.00000000000006,481.48213567392287 334.5454545454546,479.6764770276209 363.6363636363637,460.4947571380918 C 392.72727272727275,441.31303724856275 407.2727272727273,396.3544550134304 436.3636363636364,380.8892455619217 C 465.45454545454544,365.424036110413 480,371.3661181209283 509.0909090909091,383.16870988054825 C 538.1818181818182,394.9713016401682 552.7272727272727,424.25698266100454 581.8181818181819,439.90220436002136 C 610.909090909091,455.5474260590382 625.4545454545455,466.4867892287331 654.5454545454546,461.3948183756322 C 683.6363636363637,456.30284752253135 698.1818181818182,420.47251252100654 727.2727272727274,414.4423500945171 C 756.3636363636365,408.4121876680277 785.4545454545456,427.8836750134516 800.0000000000001,431.2440062431852" fill="none" stroke-linecap="round" stroke="url(#linear-gradient-rg)" stroke-width="3" style="transition: all 0.4s cubic-bezier(0.16, 1, 0.3, 1) 0s;"></path><path d="M0 505.9945972062027 0,505.9945972062027 C 14.545454545454549,503.5243413430546 43.63636363636364,498.06242493866324 72.72727272727273,493.6433178904622 C 101.81818181818183,489.22421084226113 116.36363636363637,480.29024956345256 145.45454545454547,483.8990619651974 C 174.54545454545456,487.50787436694225 189.0909090909091,501.4289998174956 218.1818181818182,511.68737989918645 C 247.27272727272728,521.9457599808773 261.8181818181818,542.4695567567553 290.90909090909093,535.1909623736516 C 320.00000000000006,527.9123679905479 334.5454545454546,472.96434868182064 363.6363636363637,475.2944079836676 C 392.72727272727275,477.6244672855146 407.2727272727273,549.9651607275537 436.3636363636364,546.8412588828865 C 465.45454545454544,543.7173570382192 480,476.2198840967039 509.0909090909091,459.67489876033125 C 538.1818181818182,443.1299134239586 552.7272727272727,443.4692256485485 581.8181818181819,464.11633220102334 C 610.909090909091,484.7634387534982 625.4545454545455,557.7520503579577 654.5454545454546,562.9104315227054 C 683.6363636363637,568.068812687453 698.1818181818182,494.2910481508946 727.2727272727274,489.9082380247613 C 756.3636363636365,485.52542789862804 785.4545454545456,530.7787523185835 800.0000000000001,540.996380892039" fill="none" stroke-linecap="round" stroke="url(#linear-gradient-rg)" stroke-width="2" style="transition: all 0.4s cubic-bezier(0.16, 1, 0.3, 1) 0s;"></path><path d="M0 574.844585057348 0,574.844585057348 C 14.545454545454549,577.8606973468093 43.63636363636364,600.6758731935639 72.72727272727273,589.9251465046545 C 101.81818181818183,579.1744198157452 116.36363636363637,514.2999885903206 145.45454545454547,521.0909516128013 C 174.54545454545456,527.881914635282 189.0909090909091,601.8766789135756 218.1818181818182,623.8799616170581 C 247.27272727272728,645.8832443205407 261.8181818181818,631.8530382981291 290.90909090909093,631.107365130214 C 320.00000000000006,630.3616919622989 334.5454545454546,623.7444693696219 363.6363636363637,620.1515957774827 C 392.72727272727275,616.5587221853435 407.2727272727273,621.3119879033184 436.3636363636364,613.1429971695179 C 465.45454545454544,604.9740064357175 480,586.3644770259037 509.0909090909091,579.3066421084804 C 538.1818181818182,572.2488071910572 552.7272727272727,589.4551865899236 581.8181818181819,577.8538225824013 C 610.909090909091,566.252458574879 625.4545454545455,532.2577512482414 654.5454545454546,521.2998220708687 C 683.6363636363637,510.341892893496 698.1818181818182,501.0985606132541 727.2727272727274,523.0641766955378 C 756.3636363636365,545.0297927778214 785.4545454545456,609.5151573249371 800.0000000000001,631.127902482287" fill="none" stroke-linecap="round" stroke="url(#linear-gradient-rg)" stroke-width="1" style="transition: all 0.4s cubic-bezier(0.16, 1, 0.3, 1) 0s;"></path></g></svg>