<svg xmlns="http://www.w3.org/2000/svg" version="1.1" xmlns:xlink="http://www.w3.org/1999/xlink" xmlns:svgjs="http://svgjs.dev/svgjs" viewBox="0 0 1422 800" opacity="1"><defs><linearGradient x1="50%" y1="0%" x2="50%" y2="100%" id="ssscribble-grad"><stop stop-color="#160C28" stop-opacity="1" offset="0%"></stop><stop stop-color="#AEB7B3" stop-opacity="1" offset="100%"></stop></linearGradient></defs><g fill="none" stroke-width="1.75" stroke="url(#ssscribble-grad)" stroke-linecap="round"><path d="M1097.72 659.05C1266.13 686.66 1400.53 693.25 1479.38 677.79 1496.76 659.3 1449 614.68 1349.87 545.07 1213.4 476.04 1062.21 393.31 916.99 314.26 785.55 269.47 683.83 264.9 614.93 322.55 576.12 443.07 564.9 622.38 572.23 832.69 597.76 1018.76 628.17 1141.53 655.05 1154.64 687.22 1051.25 708.41 852.48 714.75 621.51 721.62 451.12 712.08 402.06 684.47 505.66 656.85 726.53 612.47 968.4 553.52 1138.41 495.1 1185.17 423.68 1093.01 343.66 904.81 268.92 675.49 193.04 477.03 124.94 354.34 75.05 322.2 46.62 374.83 49.24 479.82 81.95 620.24 150.93 751.31 253.62 850.67 370.08 924.88 496.51 956.06 612.74 953.29 691.63 928.6 723.67 887.76 695.63 843.79 606.12 794.24 466.13 752.83 297.72 725.22 131.74 697.6 3.99 685.09 -65.51 682.56 -72.22 674.45 -14.54 665.06 92.29 641.9 233.69 596.81 386.35 520.16 529.93 403.39 657.01 261.47 752.62 90.76 814.73 -85.84 846.14 -227.03 850.62 -312.41 837.72 -309.03 807.22 -215.11 773.21 -41.42 743.94 167.64 709.97 335.61 687.81 412.08 681.03 354.7 673.89 174.06 683.37 -73.38 710.99 -294.27 738.6 -397.92 783.04 -343.3 842.25 -162.28 901.11 79.33 973.52 293.85 1055.34 417.49 1132.46 424.64 1211.94 326.66 1285.01 169.34 1340.47 -12.22 1375.63 -158.79 1380.42 -243.13 1354.5 -264.58 1291.64 -220.37 1193.31 -133.02 1078.49 -11.41 950.6 116.78 829.44 233.66 742.84 351.13 700.86 445.98 718.21 516.55 798.36 584.09 931.7 631.42 1097.66 659.04Q1097.72 659.05 1097.72 659.05" opacity="0.76"></path><path d="M1016.97 33.8C1153.07 55.89 1269.92 69.57 1355.05 78.19 1405.46 90.6 1413.6 105.36 1382.89 130.2 1318.7 168.98 1228.98 229.1 1125.1 316.66 1010.76 422.85 898.81 554.83 796.76 703.3 701.87 843.11 622.86 966.94 560.08 1050.16 507.92 1073.82 468.85 1028.97 439.49 914.62 416.45 757.4 397.74 579.33 380.04 422.32 364.09 332.28 345.77 330.42 323.68 425.54 301.59 596.66 276.76 792.58 251.05 962.69 227.09 1075.42 205.61 1102.24 190.37 1045.94 181.45 921.17 184.13 757.57 202.24 588.74 230.98 431.75 278.27 313.62 344.21 241.41 417.3 212.39 503.06 222.05 594.4 255.97 675.28 312.85 745.19 372.73 793.19 424.3 807.7 479.41 786.98 517.74 728.05 536.21 634.4 553.96 513.07 552.25 376.97 530.16 242.54 508.06 130.31 466.64 51.98 407.22 9.94 347.09 10.52 268.58 49.37 175.18 120.78 85.33 215.94 -10.92 323.24 -101.85 439.15 -169.82 550.8 -211.2 651.1 -211.14 742.92 -167.88 818.14 -75.96 876.94 58.02 924.63 203.84 959.57 347.63 985.44 456.21 1004.94 496.34 1020.9 456.96 1036.76 335.74 1050.89 157.13 1068.25 -43.26 1090.34 -214.39 1112.43 -309.55 1138.21 -303.25 1165.74 -204.72 1191.55 -39.19 1215.77 151.45 1234.56 324.88 1246.97 455.44 1248.42 520.12 1234.78 519.47 1210.03 459.26 1166.52 361.61 1103.65 250.76 1032.31 131.24 946.85 30.98 853.94 -41.16 769.64 -94.67 694.3 -118.41 639.08 -118.91 616.42 -105.46 628.41 -80.04 678.98 -50.79 765.83 -17.75 882.54 11.7 1016.97 33.8Q1016.97 33.8 1016.97 33.8" opacity="0.51"></path><path d="M937.71 350.17C1137.31 383.3 1275.98 477.21 1327.96 616.85 1301.61 746.7 1206.19 885.61 1080.54 968.95 932.11 952.62 796.87 809.61 693.67 564.38 594.44 343.53 526.51 240.14 493.38 345.72 460.24 617.56 465.03 884.18 506.83 1011.05 552.61 970.43 636.13 792.5 741.14 578.38 823.35 362.09 883.62 210.79 885.69 124.42 809.41 67.29 657.31 33.49 457.71 0.35 261.58 -32.77 131.89 -62.11 91.06 -62.41 129.16 -33.47 233.73 66.12 364.87 238.97 516.13 409.66 651.46 552.44 753.56 568.77 850.79 417.61 917.24 137.56 950.37 -134.27 983.52 -239.86 980.22 -123.03 940.42 122.1 895.75 391.62 812.14 569.77 704.31 629.54 616.59 589.63 547.16 502.44 533.34 430.01 598.44 347.79 741.54 317.02 937.65 350.16Q937.71 350.17 937.71 350.17" opacity="0.41"></path><path d="M857.22 794.51C993.29 816.6 1105.25 828.7 1181.12 821.15 1228.34 800.91 1237.8 741.62 1218.86 637.5 1179.81 519.4 1128.79 375.7 1079.65 242.55 1025.61 168.81 983.36 170.46 961.27 265.58 939.18 436.7 939.34 625.6 955.09 780.24 965.95 889.48 982.49 925.4 992.59 902.2 982.57 835.31 949.68 747.56 886.27 667.84 794.21 580.85 673.29 520.03 537.22 497.94 402.76 475.85 295.2 494.57 225.35 543.28 185.53 584.72 183.38 637.99 208.52 675.93 253.49 670.17 308.9 610.82 360.77 485.38 417.24 314.55 460.69 116.7 482.78 -54.41 504.87 -149.53 503.51 -142.23 485.33 -52.3 471.74 97.04 450.81 264.18 434.79 411.23 438.61 544.3 464.19 638.07 520.2 696.59 606.25 742.43 722.76 772.42 857.22 794.51Q857.22 794.51 857.22 794.51" opacity="0.26"></path></g></svg>